<svg xmlns="http://www.w3.org/2000/svg" xmlns:xlink="http://www.w3.org/1999/xlink" width="1000" zoomAndPan="magnify" viewBox="0 0 750 749.999995" height="1000" preserveAspectRatio="xMidYMid meet" version="1.0"><defs><g/><clipPath id="2f59388462"><path d="M 375 0 C 167.894531 0 0 167.894531 0 375 C 0 582.105469 167.894531 750 375 750 C 582.105469 750 750 582.105469 750 375 C 750 167.894531 582.105469 0 375 0 Z M 375 0 " clip-rule="nonzero"/></clipPath><clipPath id="241c13b3ce"><path d="M 0 0 L 750 0 L 750 750 L 0 750 Z M 0 0 " clip-rule="nonzero"/></clipPath><clipPath id="f183b87665"><path d="M 375 0 C 167.894531 0 0 167.894531 0 375 C 0 582.105469 167.894531 750 375 750 C 582.105469 750 750 582.105469 750 375 C 750 167.894531 582.105469 0 375 0 Z M 375 0 " clip-rule="nonzero"/></clipPath><clipPath id="09b7bf5a4e"><rect x="0" width="750" y="0" height="750"/></clipPath><clipPath id="734706d801"><rect x="0" width="617" y="0" height="750"/></clipPath></defs><g clip-path="url(#2f59388462)"><g transform="matrix(1, 0, 0, 1, 0, -0.000000000000042435)"><g clip-path="url(#09b7bf5a4e)"><g clip-path="url(#241c13b3ce)"><g clip-path="url(#f183b87665)"><rect x="-165" width="1080" fill="#ffffff" height="1079.999992" y="-164.999999" fill-opacity="1"/></g></g></g></g></g><g transform="matrix(1, 0, 0, 1, 59, -0.000000000000042435)"><g clip-path="url(#734706d801)"><g fill="#210c5a" fill-opacity="1"><g transform="translate(0.0457346, 633.245488)"><g><path d="M 87.140625 -13.921875 C 81.285156 -13.921875 73.597656 -19.773438 64.078125 -31.484375 C 54.554688 -43.203125 49.796875 -53.941406 49.796875 -63.703125 C 49.796875 -73.472656 64.320312 -141.707031 93.375 -268.40625 C 122.425781 -395.113281 137.195312 -473.609375 137.6875 -503.890625 C 137.6875 -512.179688 138.785156 -517.914062 140.984375 -521.09375 C 143.179688 -524.269531 147.816406 -525.859375 154.890625 -525.859375 C 161.972656 -525.859375 171.25 -518.289062 182.71875 -503.15625 C 194.195312 -488.019531 199.9375 -471.785156 199.9375 -454.453125 C 199.9375 -437.117188 182.359375 -356.921875 147.203125 -213.859375 C 143.785156 -200.671875 139.144531 -181.75 133.28125 -157.09375 C 127.425781 -132.4375 122.789062 -113.515625 119.375 -100.328125 C 115.957031 -87.148438 112.296875 -72.75 108.390625 -57.125 C 100.085938 -28.320312 93.003906 -13.921875 87.140625 -13.921875 Z M 87.140625 -13.921875 "/></g></g></g><g fill="#210c5a" fill-opacity="1"><g transform="translate(227.088832, 633.245488)"><g><path d="M 342.765625 -156.734375 C 342.765625 -116.691406 324.695312 -83.117188 288.5625 -56.015625 C 252.425781 -28.921875 211.046875 -15.375 164.421875 -15.375 C 117.796875 -15.375 79.34375 -27.457031 49.0625 -51.625 C 18.789062 -75.800781 3.65625 -98.628906 3.65625 -120.109375 C 3.65625 -134.753906 8.050781 -142.078125 16.84375 -142.078125 C 24.65625 -142.078125 40.035156 -130.359375 62.984375 -106.921875 C 71.773438 -98.628906 83.613281 -90.816406 98.5 -83.484375 C 113.394531 -76.160156 129.144531 -72.5 145.75 -72.5 C 179.925781 -72.5 210.316406 -81.285156 236.921875 -98.859375 C 263.535156 -116.441406 276.84375 -135.488281 276.84375 -156 C 276.84375 -169.1875 268.050781 -186.03125 250.46875 -206.53125 C 232.894531 -227.039062 213.488281 -246.445312 192.25 -264.75 C 171.007812 -283.0625 151.597656 -302.710938 134.015625 -323.703125 C 116.441406 -344.703125 107.65625 -361.304688 107.65625 -373.515625 C 107.65625 -385.722656 110.097656 -398.660156 114.984375 -412.328125 C 119.867188 -426.003906 125.238281 -436.015625 131.09375 -442.359375 C 150.132812 -463.359375 179.796875 -482.644531 220.078125 -500.21875 C 260.359375 -517.800781 294.171875 -526.59375 321.515625 -526.59375 C 335.679688 -526.59375 347.644531 -521.953125 357.40625 -512.671875 C 367.164062 -503.398438 372.046875 -493.632812 372.046875 -483.375 C 372.046875 -478.488281 366.921875 -474.582031 356.671875 -471.65625 C 346.421875 -468.726562 330.921875 -464.941406 310.171875 -460.296875 C 289.421875 -455.660156 270.988281 -450.171875 254.875 -443.828125 C 198.71875 -422.347656 170.640625 -401.597656 170.640625 -381.578125 C 170.640625 -370.835938 199.207031 -340.804688 256.34375 -291.484375 C 278.3125 -272.441406 298.207031 -250.347656 316.03125 -225.203125 C 333.851562 -200.054688 342.765625 -177.234375 342.765625 -156.734375 Z M 342.765625 -156.734375 "/></g></g></g></g></g></svg>